<?xml version="1.0" encoding="utf-8"?>
<!-- Generator: Adobe Illustrator 23.0.1, SVG Export Plug-In . SVG Version: 6.00 Build 0)  -->
<svg version="1.1" id="Layer_1" xmlns="http://www.w3.org/2000/svg" xmlns:xlink="http://www.w3.org/1999/xlink" x="0px" y="0px"
	 viewBox="0 0 410 414.7" style="enable-background:new 0 0 410 414.7;" xml:space="preserve">
<style type="text/css">
	.st0{fill:#1AA7AA;}
	.st1{fill:#F79135;}
	.st2{fill:#FEFEFE;}
</style>
<g>
	<path class="st0" d="M111.9,111.6c4.3,0,8.7,0,13,0c0.9,0,1.1,0.2,1.2,1.1c0.4,5.2,0.9,10.5,2,15.6c1.1,5,2.6,9.8,4.6,14.5
		c2.6,6,5.8,11.7,9.9,16.9c2.6,3.4,5.3,6.6,8.4,9.5c5.5,5.2,11.4,9.6,18.1,13.2c3.5,1.9,7.1,3.6,10.9,4.9c3.1,1.1,6.3,1.9,9.5,2.6
		c3.8,0.9,7.6,1.5,11.4,1.8c5.1,0.4,10.3,0.4,15.4-0.2c3.5-0.4,6.9-1,10.3-1.8c2.4-0.5,4.7-1.2,7-2c3.6-1.3,7.2-2.7,10.6-4.4
		c6.6-3.4,12.7-7.5,18.2-12.6c4.3-4,8.2-8.3,11.6-13c3.7-5.2,6.7-10.8,9-16.7c2-5.1,3.6-10.3,4.5-15.6c0.6-3.6,1-7.2,1.1-10.8
		c0-0.3,0-0.5-0.1-0.8c-0.6-1.5,0.3-2.7,1.9-2.7c8.1,0,16.2,0,24.3,0c1.9,0,2.2,0.4,2.1,2.3c-0.1,2.4-0.4,4.9-0.6,7.3
		c-0.3,2.6-0.7,5.3-1.2,7.9c-1,5.7-2.5,11.3-4.1,16.8c-1,3.5-2.3,7-3.6,10.4c-1.5,4.2-3.2,8.4-4.9,12.5c-1.8,4.3-3.7,8.5-5.7,12.7
		c-3,6.2-6.1,12.3-9.4,18.3c-3.7,6.9-7.7,13.6-11.8,20.3c-4.4,7.2-8.9,14.3-13.6,21.3c-5.2,7.8-10.5,15.4-16,23
		c-3.5,4.8-6.9,9.6-10.5,14.3c-3.7,4.9-7.6,9.7-11.4,14.6c-3.9,5-7.9,9.9-11.9,14.8c-1.4,1.7-2.9,3.3-4.2,5c-0.5,0.6-0.8,0.5-1.3,0
		c-1.2-1.1-2-2.5-2.9-3.8c-1.8-2.5-4.2-4.5-6.1-6.9c-4-5-8.1-10-12-15.1c-6.8-8.7-13.4-17.6-19.9-26.7c-5.3-7.4-10.4-14.9-15.4-22.4
		c-4.4-6.7-8.7-13.4-12.8-20.3c-3.9-6.4-7.6-12.9-11.1-19.5c-3.2-5.9-6.2-11.8-9.1-17.9c-3.1-6.7-6.1-13.5-8.8-20.4
		c-2-5.2-3.8-10.4-5.4-15.8c-1.9-6.4-3.4-12.8-4.4-19.4c-0.6-3.7-1-7.4-1.4-11.2c-0.2-1.8-0.1-1.8,1.8-1.8
		C103.5,111.7,107.7,111.7,111.9,111.6C111.9,111.6,111.9,111.6,111.9,111.6z"/>
	<path class="st0" d="M207.1,14.7c0,4.4,0,8.8,0,13.1c0,1.1-0.4,1.6-1.6,1.6c-7.5,0.3-14.8,1.3-22,3.6c-7,2.2-13.6,5.2-19.7,9.1
		c-4.3,2.7-8.3,5.8-12.1,9.4c-4.3,4.1-8.2,8.6-11.6,13.5c-4.7,7-8.3,14.6-10.7,22.7c-1.2,4.1-2,8.3-2.7,12.5c-0.2,1-0.6,1-1.3,1
		c-5.1,0-10.3-0.1-15.4,0c-3.6,0.1-7.2-0.1-10.8,0.2c-0.9,0.1-1.1-0.3-1-1.1c0.2-3.1,0.6-6.1,1.2-9.2c0.7-4.2,1.7-8.3,2.9-12.4
		c2-6.8,4.6-13.3,7.8-19.5c3.5-6.8,7.6-13.1,12.4-19c4.2-5.1,8.8-9.9,13.9-14.2c4-3.4,8.3-6.5,12.7-9.3c5.7-3.5,11.6-6.7,18-9.1
		c4.2-1.6,8.4-3,12.7-4.2c5.4-1.4,11-2.3,16.5-2.9c3-0.3,6-0.5,9-0.5c1.7,0,1.7,0,1.7,1.6C207,6,207,10.4,207.1,14.7
		C207,14.7,207,14.7,207.1,14.7z"/>
	<path class="st1" d="M226.7,135.4c-14,0-28,0-42,0c-2.5,0-2.1,0.2-2.1-2.1c0-8.7-4.8-15.8-12.9-18.7c-6.3-2.3-12.3-1.5-17.9,2.3
		c-0.7,0.5-1.5,1.1-2.2,1.5c-0.4,0.3-1,0.5-1.4,0.1c-0.4-0.4-0.2-0.9-0.1-1.3c1.1-3.6,3.8-5.7,7.1-7.2c2.3-1.1,4.8-1.5,7.4-1.5
		c1,0,1.4-0.3,1.4-1.4c0-2,0.9-3.4,2.9-4.1c3.3-1.2,5.3-3.6,6.5-6.8c0.9-2.6,2.1-5.2,3.1-7.7c0.3-0.7,0.5-1.3-0.5-1.6
		c-0.6-0.2-0.9-0.7-1.2-1.3c-1.1-2.7-2.2-5.3-3.2-8c-0.6-1.6-0.1-2.4,1.6-2.4c3.2-0.1,6.3-0.1,9.5,0.3c1.8,0.2,3.2,1.3,4.5,2.3
		c2.1,1.7,4.5,2.8,7.2,3c1,0.1,2-0.2,3.1,0c0.9,0.2,1.5,0.8,1.7,1.7c0.3,1.3-0.6,2.4-2,2.4c-2.7,0.1-5.5,0.1-8.2,0.1
		c-2,0-2,0-2.3,1.9c-0.6,4.1-2.4,7.7-3.9,11.4c-0.5,1.4-1.1,2.8-1.7,4.1c-1.2,2.8-1.2,5.6,0,8.4c1.4,3.4,2.8,6.9,4.3,10.3
		c1.2,2.9,3.4,4.7,6.7,4.8c6,0.1,12,0,18,0c0.6,0,1.2-0.1,1.8-0.3c2.4-0.7,3.2-2,2.3-4.4c-1.5-4.1-3.2-8.1-4.8-12.2
		c-0.8-2.2-1.5-4.4-2-6.8c-1-4.9,1.8-8.5,6.8-8.8c2.4-0.1,4.7-0.1,7.1-0.1c7.9,0,15.9,0,23.8,0c3.3,0,4.6,1.3,4.6,4.6
		c0,1.4-0.2,2.8-0.4,4.2c-0.1,0.8,0.2,1.1,0.9,1.3c11.8,3,19.5,10.4,23.2,22c0.5,1.6,1.1,3.2,1.1,5c-0.1,2.6-1.7,4.4-4.3,4.7
		c-0.7,0.1-1.4,0.1-2.1,0.1C254.3,135.4,240.5,135.4,226.7,135.4z M237.5,111.6C237.5,111.6,237.5,111.6,237.5,111.6
		c0,0-0.1,0-0.1,0c-3.5,0-3.5,0-2.6-3.4c0.7-2.5,1.4-5,2.1-7.5c0.1-0.4,0.2-0.8-0.2-1.2c-0.5-0.4-0.9-0.1-1.3,0.1
		c-0.3,0.2-0.5,0.4-0.7,0.7c-4,5-8,10-12,15.1c-1.1,1.4-0.8,2.1,1,2.3c1.6,0.1,3.2,0.1,4.8,0.1c1.1,0,1.5,0.1,1.1,1.4
		c-0.9,2.7-1.6,5.4-2.3,8.1c-0.2,0.9-0.8,2.1,0.2,2.6c0.9,0.5,1.5-0.7,2.1-1.3c0.1-0.1,0.1-0.1,0.2-0.2c1.6-2,3.2-3.9,4.7-5.9
		c2.3-2.8,4.5-5.7,6.8-8.6c1-1.3,0.6-2.1-1-2.2C239.3,111.5,238.4,111.6,237.5,111.6z"/>
	<path class="st1" d="M128.4,283.4c-4,1.3-8.1,1.8-12.1,2.9c-7.5,2.1-15.1,4-22.6,6.2c-4.1,1.2-8.2,2.9-12.3,4
		c-10.5,3-20.9,6.3-30.9,10.8c-8.3,3.8-16.2,8.1-23,14.4c-2.2,2.1-4.1,4.4-5.6,7c-3.2,5.8-2.9,11.6,0.7,17.2
		c3.4,5.3,8.2,9.1,13.3,12.5c8.3,5.4,17.3,9.4,26.6,12.7c9.9,3.6,20.1,6.4,30.3,8.8c10,2.3,20,4.2,30.2,5.7c9,1.4,18.1,2.5,27.2,3.3
		c10.6,1,21.3,1.7,32,2.1c14.9,0.6,29.9,0.6,44.8,0.1c8.9-0.3,17.8-0.8,26.7-1.5c8.5-0.7,16.9-1.6,25.3-2.7
		c8.2-1.1,16.3-2.3,24.4-3.9c16.9-3.2,33.5-7.4,49.6-13.6c9.3-3.6,18.3-7.9,26.2-14c4.3-3.3,8.2-7,10.5-12c2.3-4.9,2-9.8-0.6-14.6
		c-3-5.5-7.7-9.4-12.7-12.9c-8.6-5.9-18.2-10.1-28-13.7c-6.1-2.2-12.3-4.1-18.5-5.8c-0.9-0.2-1.7-0.6-2.5-1c-4-2-8.5-2.4-12.6-3.8
		c-3.8-1.3-7.6-2.2-11.5-3.3c-3.9-1.1-7.8-2.2-11.8-3.3c-3.3-0.9-6.6-1.7-10-2.3c-0.1,0-0.2-0.1-0.2-0.1c-0.1-0.2,0.1-0.2,0.2-0.2
		c3.1,0.5,6.3,0.9,9.4,1.4c5.8,0.9,11.6,2,17.3,3.1c5.8,1.1,11.6,2.4,17.3,3.9c8.1,2.1,16.2,4.4,24,7.3c10,3.7,19.8,7.9,28.7,13.9
		c3.9,2.6,7.6,5.6,10.8,9.1c0.1,0,0.3,0,0.4,0.1c0,0,0,0,0,0c0.3,1.4,1.5,2.2,2.2,3.3c4.4,6.7,5.4,13.7,1.8,21.1
		c-2.3,4.8-5.9,8.5-9.9,11.8c-7.6,6.3-16.3,10.7-25.4,14.5c-14.2,5.9-28.9,10-44,13.3c-9.5,2.1-19.1,3.8-28.7,5.2
		c-11,1.6-22.1,2.8-33.2,3.7c-11.1,0.9-22.2,1.4-33.3,1.7c-10,0.2-20,0.2-30-0.1c-8.8-0.3-17.7-0.7-26.5-1.3c-7-0.5-14-1.1-21-1.9
		c-7.7-0.8-15.3-1.9-22.9-3.1c-8.9-1.4-17.8-3.1-26.6-5.1c-9.6-2.2-19.2-4.8-28.5-8.1c-11.5-4.1-22.7-8.8-32.7-16
		c-5-3.6-9.5-7.7-12.6-13.2c-2.8-5-3.7-10.3-2-15.9c1.2-4.1,3.6-7.5,6.4-10.6c0.3-0.3,0.8-0.5,0.6-1l0,0c0.3,0.2,0.4-0.1,0.5-0.3
		c0,0,0,0,0,0c0.1-0.1,0.3-0.2,0.4-0.3c0.2-0.7,0.9-0.9,1.4-1.3c5.4-4.7,11.5-8.5,17.9-11.7c9.4-4.7,19.2-8.3,29.2-11.4
		c6.3-1.9,12.7-3.6,19.1-5.1c4.8-1.1,9.7-2.1,14.6-3.1c1.7-0.4,3.5-0.8,5.2-1c1.9-0.3,3.9-0.7,5.8-0.9c3.2-0.4,6.4-1.3,9.7-1.5
		C127.5,283.1,128,283.1,128.4,283.4z"/>
	<path class="st0" d="M388.9,321.4c-3.2-3.5-6.8-6.5-10.8-9.1c-8.9-6-18.7-10.2-28.7-13.9c-7.9-2.9-15.9-5.2-24-7.3
		c-5.7-1.5-11.5-2.7-17.3-3.9c-5.8-1.1-11.5-2.2-17.3-3.1c-3.1-0.5-6.3-0.9-9.4-1.4c0.4-0.8,1.1-0.4,1.6-0.3
		c3.1,0.4,6.3,0.9,9.4,1.4c4.4,0.7,8.8,1.4,13.2,2.2c4.2,0.8,8.4,1.7,12.6,2.6c7.4,1.6,14.7,3.5,22,5.6c7.2,2.1,14.2,4.5,21.2,7.2
		c8,3.2,15.7,6.7,23.1,11.2c7.5,4.5,14.4,9.7,19.7,16.8c4.3,5.7,6.6,12.1,5.7,19.3c-0.6,5.2-2.8,9.8-6,13.9
		c-4.1,5.4-9.3,9.7-14.9,13.5c-8.6,5.8-17.9,10.2-27.5,14.1c-8.6,3.4-17.4,6.2-26.3,8.7c-7.1,2-14.2,3.7-21.3,5.2
		c-7,1.5-14,2.8-21.1,3.9c-5.3,0.8-10.7,1.6-16,2.3c-4.3,0.6-8.6,1-12.9,1.4c-5.6,0.5-11.2,1-16.8,1.5c-2.7,0.2-5.5,0.4-8.2,0.5
		c-5,0.3-10,0.4-15,0.6c-11.5,0.5-23,0.4-34.5,0.1c-8.7-0.2-17.5-0.7-26.2-1.3c-7.5-0.5-15-1.2-22.5-2c-6.7-0.7-13.4-1.6-20.1-2.7
		c-6-0.9-11.9-1.9-17.8-3c-7.7-1.5-15.3-3.2-22.9-5.2c-7.9-2.1-15.7-4.4-23.5-7.1c-12.3-4.4-24.3-9.5-35.2-16.9
		c-6.1-4.1-11.7-8.8-15.9-15c-3.2-4.8-5.3-10-5.1-15.9c0.1-6,2.4-11.1,5.9-15.9c4.7-6.5,10.9-11.3,17.6-15.6
		c10.1-6.4,21.1-11.2,32.4-15.2c5.3-1.9,10.7-3.6,16.1-5.1c5.8-1.7,11.7-3.1,17.5-4.5c6.3-1.5,12.6-2.7,19-3.9
		c4.8-0.9,9.5-1.6,14.3-2.3c3.1-0.4,6.2-0.9,9.3-1.3c1-0.1,1.9,0.1,2.7,0.3c-0.3,0-0.6,0.1-0.8,0.2c-1.9,0.4-3.8,0.8-5.6,1.2
		c-0.4-0.3-0.9-0.4-1.5-0.3c-3.3,0.2-6.4,1.1-9.7,1.5c-1.9,0.2-3.9,0.6-5.8,0.9c-1.7,0.2-3.5,0.7-5.2,1c-4.9,1-9.7,2-14.6,3.1
		c-6.4,1.5-12.8,3.2-19.1,5.1c-10,3.1-19.9,6.7-29.2,11.4c-6.4,3.2-12.4,7-17.9,11.7c-0.5,0.4-1.2,0.6-1.4,1.3c-0.2,0-0.4,0-0.4,0.3
		c0,0,0,0,0,0c-0.3-0.1-0.5,0-0.5,0.3c0,0,0,0,0,0c-0.2,0-0.4,0-0.5,0.1c-5.7,3.9-10.9,8.4-14.6,14.3c-4.8,7.7-5.1,15.4-0.3,23.3
		c3.6,5.9,8.6,10.4,14.2,14.4c13.8,9.7,29.2,15.6,45.1,20.6c7.8,2.5,15.8,4.6,23.8,6.3c4.9,1.1,9.9,2.2,14.8,3.1
		c6.1,1.2,12.2,2.1,18.4,3c7.1,1,14.3,1.9,21.4,2.7c6.2,0.7,12.5,1.1,18.7,1.6c9.4,0.7,18.8,1,28.1,1.3c7.8,0.2,15.5,0.2,23.3,0
		c11.6-0.2,23.2-0.8,34.8-1.6c3.2-0.2,6.5-0.5,9.7-0.8c5.7-0.6,11.3-1.2,17-1.9c5.3-0.7,10.6-1.4,15.9-2.2c5.7-0.9,11.3-2,16.9-3.1
		c6.4-1.3,12.7-2.7,19-4.3c10-2.6,19.9-5.6,29.6-9.4c10.4-4,20.4-8.7,29.5-15.2c5.5-3.9,10.5-8.4,14.1-14.3
		c3.8-6.2,4.7-12.7,1.7-19.5c-2.2-5.2-5.9-9.4-10.1-13.1c-1.4-1.2-2.7-2.6-4.5-3.3l0,0C389.3,321.1,389.1,321.1,388.9,321.4z
		 M130.2,282.8c-0.7,0-1.1-0.2-1.5,0.2C129.2,283.2,129.6,283.2,130.2,282.8z"/>
	<path class="st0" d="M214.6,5.5c0-1.3,0-2.6,0-3.9c0-1.1,0.4-1.6,1.5-1.6c7-0.1,13.9,0.6,20.8,2c4.9,1,9.8,2.3,14.5,3.9
		c2.9,1,5.7,2.6,8.5,3.9c1.5,0.7,2.9,1.5,4.4,2.3c6,3.2,11.6,7.1,16.7,11.6c4,3.4,7.6,7.1,11.1,11.1c3,3.5,5.9,7.1,8.2,11.2
		c1.7,3,3.7,5.8,5.2,8.9c1.9,4.1,3.7,8.2,5.2,12.4c1.3,3.9,2.4,7.8,3.4,11.8c0.8,3.4,1.3,6.9,1.6,10.4c0.3,3.5,0.7,6.9,0.6,10.4
		c0,1-0.3,1.5-1.4,1.4c-2.2-0.1-4.5,0.1-6.7-0.2c-0.7-0.1-0.9-0.4-0.9-1.1c0.1-5.2-0.7-10.3-1.6-15.4c-1.5-7.9-4-15.6-7.5-22.9
		c-4.7-9.8-10.9-18.4-18.6-26c-6.3-6.1-13.4-11.2-21.2-15.2c-7.6-3.9-15.7-6.4-24-8.1c-5.9-1.2-11.9-1.5-17.9-1.4
		c-1.5,0-1.7-0.2-1.7-1.7C214.6,8,214.6,6.8,214.6,5.5z"/>
	<path class="st0" d="M113.8,334.9c1.1-0.9,1.7-1.9,2.7-2.7c2.6-2,5.4-2.9,8.6-2.5c2,0.2,3.5,1.3,4.4,3.1c0.3,0.7,0.6,1.4,1,2.1
		c1-0.9,1.8-2.1,2.9-2.9c2.8-2,5.8-3,9.2-2.2c3,0.7,4.8,3.3,5,6.7c0.2,4-0.6,7.8-1.4,11.7c-1,5.3-2.1,10.7-3.1,16
		c-0.1,0.7-0.4,1.3-0.4,2c0,1.4-0.6,1.8-2,1.7c-2.2-0.1-4.4-0.1-6.6,0c-0.9,0-1.4,0-1.1-1.3c1.4-7.2,2.8-14.5,4.1-21.7
		c0.3-1.6,0.5-3.2,0.5-4.9c0-0.9-0.2-1.8-1.2-2.3c-1-0.5-1.9-0.3-2.6,0.4c-1.8,1.4-2.8,3.5-3.5,5.6c-1.4,4.2-1.9,8.6-2.8,12.9
		c-0.7,3.5-1.4,7-2,10.5c-0.1,0.6-0.4,0.8-0.9,0.8c-2.6,0-5.1,0-7.7,0c-0.7,0-0.9-0.2-0.8-0.9c1.1-5.8,2.3-11.6,3.4-17.4
		c0.5-2.6,1-5.3,1.4-8c0.1-0.9,0.1-1.8-0.2-2.7c-0.5-1.3-1.5-1.7-2.8-1.1c-1.5,0.7-2.4,2.1-3.2,3.5c-1.6,2.8-2.1,6-2.7,9.1
		c-0.9,4.7-1.8,9.5-2.7,14.2c-0.2,1,0,2.4-0.8,3c-0.9,0.6-2.2,0.2-3.3,0.2c-1.6,0-3.3-0.1-4.9,0c-1.3,0.1-1.3-0.6-1.1-1.5
		c0.6-3.1,1.2-6.2,1.8-9.3c1-5.4,2.1-10.8,3.1-16.1c0.6-3.2,1.1-6.4,1.6-9.6c0.1-0.7,0.3-1,1.1-1c2.1,0.1,4.3,0,6.4,0
		c0.8,0,1.1,0.3,0.9,1.1C113.7,332.6,113.7,333.6,113.8,334.9z"/>
	<path class="st0" d="M214.6,25.5c0-1.2,0-2.4,0-3.6c0-1,0.4-1.6,1.5-1.4c2.7,0.4,5.4,0.7,8.1,1.2c3.5,0.7,7,1.4,10.5,2.4
		c3,0.9,5.9,1.9,8.8,3.2c3.4,1.5,6.8,3.1,10,5c4.8,2.8,9.4,6,13.6,9.6c4.3,3.7,8.3,7.7,11.8,12.1c3.4,4.2,6.5,8.7,9,13.6
		c3.2,5.9,5.8,12.1,7.6,18.6c1.3,4.6,2.4,9.4,2.9,14.2c0.1,0.7-0.4,1-0.9,1c-2.4,0-4.9,0-7.3,0c-0.6,0-0.9-0.4-1-1.1
		c-1-7.6-3.2-15-6.4-22c-2.4-5.3-5.3-10.2-8.7-14.8c-4.9-6.7-10.7-12.5-17.4-17.4c-6.2-4.5-12.9-8.1-20.1-10.7
		c-4.2-1.5-8.4-2.8-12.8-3.6c-2.6-0.5-5.3-1-8-1.2c-1,0-1.3-0.6-1.3-1.4C214.6,28,214.6,26.7,214.6,25.5
		C214.6,25.5,214.6,25.5,214.6,25.5z"/>
	<path class="st1" d="M255.1,340.9c0.1,0.2,0.2,0.3,0.2,0.3c6.8,2.5,8.1,12.6,4.2,18.8c-2.7,4.2-6.5,6.5-11.2,7.5
		c-5.6,1.3-11.3,1-17,0.4c-1-0.1-1-0.7-0.9-1.4c0.8-4,1.5-8,2.3-12c1.2-6.1,2.3-12.3,3.5-18.4c1.2-6.4,2.5-12.8,3.7-19.2
		c0.1-0.5,0.3-0.8,0.8-0.8c5.3-0.8,10.6-1.4,15.8-0.1c6.9,1.8,9.5,7.4,8.3,13.8c-0.9,5.1-4,8.7-8.9,10.7
		C255.6,340.6,255.4,340.8,255.1,340.9z M252.2,351.4c0-4.9-2.6-7.5-7.2-7.3c-0.6,0-0.9,0.1-1.1,0.8c-1,5-2.1,10-3.1,15
		c-0.1,0.7,0.2,0.9,0.8,1C247.6,361.6,252.2,357.5,252.2,351.4z M255.6,328.4c0.1-4.3-2.4-6.5-6.5-6c-0.7,0.1-1.1,0.3-1.3,1
		c-0.7,4.2-1.4,8.4-2.2,12.6c-0.1,0.7,0.1,1,0.8,1C251.8,337.3,255.5,333.8,255.6,328.4z"/>
	<path class="st1" d="M296.1,345.1c0.9-1.4,1.7-2.8,2.6-4.2c2-3.1,3.9-6.2,5.9-9.4c0.5-0.7,1-1.1,1.9-1c2.7,0.1,5.3,0,8,0
		c0.3,0,0.8-0.2,0.9,0.2c0.1,0.2-0.2,0.5-0.4,0.8c-3.5,4.8-7,9.6-10.5,14.3c-0.6,0.9-0.8,1.6-0.5,2.7c1.7,6,3.3,12.1,5,18.1
		c0.3,1,0.3,1.5-1,1.4c-2.5-0.1-5-0.1-7.5,0c-0.8,0-1.2-0.2-1.4-1.1c-0.9-4.5-1.9-9-2.8-13.5c-0.1-0.4,0-0.9-0.5-1
		c-0.4-0.1-0.6,0.4-0.8,0.7c-1.5,1.5-1.6,3.6-2,5.5c-0.6,2.8-1.1,5.5-1.6,8.3c-0.1,0.8-0.4,1-1.2,1c-2.4,0-4.9,0-7.3,0
		c-0.8,0-1.1-0.2-0.9-1c1.7-8.9,3.4-17.8,5.1-26.6c1.6-8.3,3.1-16.6,4.7-24.9c0.1-0.7,0.4-1,1.1-1c2.5,0,5.1,0,7.6,0
		c0.8,0,0.9,0.3,0.8,1c-0.9,4.9-1.8,9.8-2.8,14.7c-0.9,4.8-1.8,9.5-2.7,14.3c0,0.2,0,0.4,0,0.6C295.9,345,296,345,296.1,345.1z"/>
	<path class="st0" d="M168.9,362.3c-1.5,1.6-2.8,3.3-4.5,4.6c-3.5,2.6-7.7,2.6-10.5,0c-2-1.8-2.8-4.2-3-6.8
		c-0.6-8.5,1.1-16.4,6.4-23.2c3.7-4.8,8.7-7.2,14.8-7.3c3.3-0.1,6.5,0.2,9.6,1.2c0.8,0.2,0.9,0.6,0.8,1.3c-0.6,3.1-1.2,6.3-1.9,9.4
		c-1.6,8.4-3.7,16.7-3.6,25.2c0,1-0.3,1.3-1.3,1.2c-2.1-0.1-4.1-0.1-6.2,0c-0.9,0-1.1-0.3-1.1-1.1
		C168.8,365.4,168.8,363.9,168.9,362.3z M160.3,355.1c0,1,0.1,2.1,0.3,3.1c0.6,2.5,2.6,3.2,4.5,1.5c1.2-1,1.9-2.3,2.5-3.7
		c2.4-5.8,2.9-12,4.3-18.1c0.2-0.7-0.2-0.8-0.7-0.9c-2.6-0.5-4.4,0.8-5.8,2.7C161.9,344.3,160.8,349.6,160.3,355.1z"/>
	<path class="st0" d="M79.9,368.5c-3.4,0-6.1-0.4-8.7-1.3c-1-0.3-1.6-0.8-1.2-2c0.7-2,1.3-4.1,1.9-6.1c0.2-0.8,0.6-0.9,1.4-0.6
		c2.8,1.2,5.7,1.8,8.7,1c4.4-1.1,6.3-5.8,4.2-9.8c-1-1.8-2.4-3.3-3.9-4.7c-2.7-2.5-5.1-5.3-6.1-8.9c-2.3-7.8,1.3-17.5,10.8-20.1
		c3.9-1.1,7.9-1.1,11.8,0c1.8,0.5,2,0.7,1.4,2.5c-0.6,2-1.3,3.9-1.9,5.9c-0.2,0.7-0.4,0.8-1.2,0.5c-2.4-1.1-4.9-1.4-7.5-0.5
		c-3.9,1.3-5.5,5.8-3.5,9.4c1,1.7,2.5,3.1,3.9,4.4c3,2.7,5.4,5.7,6.3,9.6c1.9,8.3-2,18.5-12.7,20.3
		C82.1,368.3,80.7,368.5,79.9,368.5z"/>
	<path class="st1" d="M313.1,354.1c0.2-6.8,1.9-13.1,6.3-18.5c3.1-3.9,7.2-6,12.3-5.9c5.5,0.2,8.9,3.8,9.4,9
		c0.7,7.5-3.4,12.8-10.8,14.4c-2.2,0.5-4.4,0.8-6.6,0.8c-0.9,0-1.2,0.3-1.1,1.2c0.1,3.2,2.1,5.4,5.2,5.6c2.5,0.2,4.9-0.2,7.1-1.2
		c0.9-0.4,1.3-0.3,1.3,0.8c0.1,1.7,0.2,3.4,0.4,5.1c0.1,0.6,0,1-0.6,1.2c-4.9,1.7-9.8,2.6-14.9,1.1c-4.4-1.3-6.6-4.6-7.6-8.9
		C313.2,357.3,313.1,355.7,313.1,354.1z M325.5,346.6c1.2-0.1,2.9-0.4,4.5-1.3c2-1.2,2.9-3.1,2.5-5.4c-0.3-2-2-2.9-3.9-2.1
		c-1,0.4-1.7,1.1-2.3,2c-1.2,1.6-2,3.5-2.5,5.4C323.4,346.6,323.4,346.6,325.5,346.6z"/>
	<path class="st0" d="M214.6,43.6c0-0.9,0-1.7,0-2.6c0-0.8,0.3-1.1,1.1-1c11.5,1.2,22.1,5.1,31.7,11.5c7.8,5.2,14.2,11.7,19.4,19.4
		c3,4.5,5.5,9.4,7.4,14.5c1.7,4.7,2.9,9.5,3.7,14.4c0.3,1.5,0,1.8-1.5,1.8c-1.2,0-2.4-0.1-3.6,0c-1.1,0.1-1.5-0.4-1.7-1.4
		c-0.8-5.2-2.3-10.3-4.4-15.1c-2.2-5.1-5-9.7-8.5-14.1c-4.4-5.5-9.5-10.2-15.5-14c-7.7-5-16.1-8-25.2-9.4c-3-0.5-3-0.4-3-3.4
		C214.5,44,214.5,43.8,214.6,43.6C214.5,43.6,214.5,43.6,214.6,43.6z"/>
	<path class="st1" d="M163.1,149.5c-9.3,0-16.5-7.1-16.5-16.4c0-9.1,7.4-16.5,16.4-16.5c8.9,0,16.3,7.5,16.3,16.3
		C179.4,142.2,172.2,149.5,163.1,149.5z M163,143c4.2,0,8.1-2.7,9.3-6.8c1.1-3.6,0.5-7-2.1-9.8c-0.9-1-1.2-0.9-1.7,0.3
		c-0.9,2.3-1.9,4.6-2.8,6.9c-0.7,1.7-2.2,2.4-3.6,1.8c-1.6-0.6-2.1-2-1.4-3.8c0.9-2.4,1.8-4.7,2.8-7c0.4-1,0.1-1.3-0.9-1.3
		c-0.3,0-0.6,0-0.9,0c-5.1,0.6-8.9,5.2-8.6,10.4C153.5,138.9,157.7,142.9,163,143z"/>
	<path class="st0" d="M227.1,337.4c-0.3,0-0.7,0-1,0c-2.7,0-2.6,0-3.1,2.7c-0.9,4.8-1.8,9.7-2.7,14.5c-0.3,1.4-0.5,2.9-0.2,4.3
		c0.2,1.3,1,2,2.4,2.1c0.7,0,1.5,0,2.2,0c0.7,0,0.9,0.2,0.8,0.9c-0.3,1.8-0.6,3.6-0.9,5.5c-0.1,0.5-0.2,1-0.7,1.1
		c-3.1,0.5-6.2,0.9-9.3-0.2c-3.3-1.2-4.6-3.8-4.8-7.1c-0.2-2.8,0.5-5.4,1-8.1c0.9-4.7,1.8-9.4,2.7-14.1c0.2-1.1,0-1.5-1.3-1.5
		c-3,0.1-3,0-2.3-2.9c0.2-1,0.4-2.1,0.6-3.1c0.1-0.6,0.4-0.9,1-0.8c0.6,0,1.2-0.1,1.8,0c1.3,0.2,1.9-0.3,2.1-1.6
		c0.2-1.7,0.7-3.4,0.9-5.2c0.1-0.7,0.4-1.1,1.1-1.3c2.9-0.7,5.7-1.4,8.6-2c1-0.2,0.6,0.7,0.5,1.1c-0.4,2.4-0.9,4.8-1.4,7.2
		c-0.1,0.3-0.1,0.6-0.2,0.9c-0.1,0.7,0.1,0.9,0.8,0.9c1.7,0,3.4,0,5.1,0c0.8,0,1,0.2,0.8,1.1c-0.3,1.5-0.6,2.9-0.8,4.4
		c-0.1,1.1-0.6,1.6-1.7,1.4C228.5,337.3,227.8,337.4,227.1,337.4z"/>
	<path class="st0" d="M197.5,335.8c1.1-1.7,2.4-3.3,4.1-4.5c1.6-1.2,3.4-1.8,5.4-1.7c0.9,0,1.1,0.4,1,1.2c-0.5,2.7-1,5.4-1.5,8.1
		c-0.1,0.6-0.3,0.8-0.9,0.8c-4.1-0.2-6.4,2.3-8.2,5.5c-1.5,2.7-1.9,5.6-2.5,8.6c-0.8,4.4-1.7,8.8-2.5,13.2c-0.1,0.7-0.5,1-1.2,1
		c-2.4,0-4.9-0.1-7.3,0c-1.3,0.1-1.4-0.5-1.2-1.5c0.5-2.3,0.9-4.5,1.3-6.8c1.7-9,3.7-17.8,4.9-26.9c0.3-2.4,0.3-2.4,2.8-2.4
		c1.5,0,3.1,0.1,4.6,0c1,0,1.4,0.2,1.3,1.3c-0.2,1.3-0.2,2.7-0.3,4C197.3,335.8,197.4,335.8,197.5,335.8z"/>
	<path class="st1" d="M277,330.5c1.3,0,2.7,0,4,0c0.6,0,0.8,0.2,0.7,0.9c-1.7,8.7-3.4,17.4-5.1,26.1c-0.6,3.1-1.2,6.2-1.8,9.3
		c-0.2,0.9-0.5,1.2-1.4,1.2c-2.4-0.1-4.9-0.1-7.3,0c-0.9,0-1.2-0.2-1.1-1.2c1.3-6.6,2.6-13.3,3.9-19.9c1-5.1,2-10.3,3-15.4
		c0.2-0.8,0.5-1.1,1.3-1C274.4,330.5,275.7,330.5,277,330.5z"/>
	<path class="st1" d="M235.6,138.9c0.6,0,0.9,0,1.2,0c1.6-0.2,2.9,0.3,4.1,1.5c4.2,3.8,9.5,3.6,13.6-0.5c0.7-0.7,1.4-1,2.4-1
		c1.6,0.1,3.2,0,4.8,0c0.9,0,1,0.3,0.7,1.1c-1.2,3.3-3.6,5.4-6.5,7.2c-7.8,4.9-17.6,1.5-21.8-4.3c-0.8-1.1-2-2.5-1.5-3.6
		C232.8,138.3,234.7,139.1,235.6,138.9z"/>
	<path class="st1" d="M283.9,319.5c0,3.8-2.6,6.3-6.2,6c-1.2-0.1-2.2-0.6-2.9-1.7c-2.2-3.2-0.3-8.3,3.5-9.3
		C281.4,313.8,283.9,316.1,283.9,319.5z"/>
	<path class="st2" d="M23.2,319.6c0-0.3,0.2-0.4,0.5-0.3C23.6,319.6,23.5,319.8,23.2,319.6z"/>
	<path class="st2" d="M23.7,319.4c0-0.3,0.2-0.3,0.4-0.3C23.9,319.2,23.8,319.3,23.7,319.4z"/>
	<path class="st2" d="M388.9,321.4c0.2-0.3,0.3-0.3,0.4,0.1C389.2,321.4,389.1,321.4,388.9,321.4z"/>
	<path class="st1" d="M130.2,282.8c-0.6,0.4-1,0.4-1.5,0.2C129.1,282.7,129.5,282.8,130.2,282.8z"/>
</g>
</svg>
